# xmcd CD database file
#
# Track frame offsets:
#	150
#	37342
#	61161
#	84622
#	104616
#	143798
#	188408
#	212458
#	249287
#
# Disc length: 3724 seconds
#
# Revision: 0
# Processed by: cddbd v1.5.2PL0 Copyright (c) Steve Scherf et al.
# Submitted via: CDex 1.75
#
DISCID=770e8a09
DTITLE=The Onus - Reoccurring Dream
DYEAR=2000
DGENRE=Jazz
TTITLE0=Nostalgia in Times Square
TTITLE1=Kiss Me Again
TTITLE2=Reoccurring Dream
TTITLE3=Night and Day
TTITLE4=I Wonder
TTITLE5=Letter to My Brother
TTITLE6=Falling Leaves
TTITLE7=Narcolepsy
TTITLE8=Caliban's Nightmare
EXTD=YEAR: 2000
EXTT0=
EXTT1=
EXTT2=
EXTT3=
EXTT4=
EXTT5=
EXTT6=
EXTT7=
EXTT8=
PLAYORDER=
